<svg xmlns="http://www.w3.org/2000/svg" viewBox="0 0 955.979 957.599">
  <path fill="black" id="fog_6853951" d="M458.322,957.6H258.8a59.857,59.857,0,1,1,0-119.715H458.322a59.857,59.857,0,0,1,0,119.715Zm299.287-59.857a59.857,59.857,0,0,0-59.857-59.857h-39.9a59.857,59.857,0,1,0,0,119.715h39.9A59.857,59.857,0,0,0,757.609,897.744Zm0-199.524a59.857,59.857,0,0,0-59.857-59.857H498.227a59.857,59.857,0,1,0,0,119.715H697.751A59.857,59.857,0,0,0,757.609,698.22Zm-399.049,0A59.857,59.857,0,0,0,298.7,638.362H258.8a59.857,59.857,0,1,0,0,119.715h39.9A59.857,59.857,0,0,0,358.56,698.22ZM113.1,709.952a59.857,59.857,0,0,0,21.349-81.925A108.98,108.98,0,0,1,155.6,491.393,136.115,136.115,0,0,0,198.94,365.972a213.371,213.371,0,0,1-.838-75.38,206.867,206.867,0,0,1,390.749-52.674,136.474,136.474,0,0,0,97.687,75.819A188.471,188.471,0,0,1,812.8,590.038a59.853,59.853,0,1,0,105.357,56.829A308.9,308.9,0,0,0,710.2,196.336a17.558,17.558,0,0,1-12.969-9.657A328.776,328.776,0,0,0,340.962,5.511,324.427,324.427,0,0,0,80.183,271a332.208,332.208,0,0,0,1.4,117.719,17.2,17.2,0,0,1-6.345,14.206A229.573,229.573,0,0,0,31.339,688.6a59.857,59.857,0,0,0,81.925,21.349Z" transform="translate(-0.015 -0.003)" />
</svg>
