<svg xmlns="http://www.w3.org/2000/svg"  viewBox="0 0 937.12 653.928">
  <path id="food-delivery-icon" d="M587.988,4.622h307.8a18.913,18.913,0,0,1,18.837,18.837V232.724h1.83a20.744,20.744,0,0,1,20.667,20.744v22.879A21.125,21.125,0,0,1,916.071,297.4H770.638C878.7,307,940.476,407.519,933.764,538.234H837.6a114.395,114.395,0,0,1-228.408,0H319.39v-6.1a311.534,311.534,0,0,1-2.593,44.233l-60.324-28.446A116.606,116.606,0,1,1,58.036,454.726L0,427.043c48.351-54.986,106.768-78.093,177.312-62.231,25.243,6.406,48.885,12.126-.61,0A857.119,857.119,0,0,1,257.159,99.645l-36-.534h0c-7.626,0-15.634,1.907-20.744-1.83a27.378,27.378,0,0,1-21.964-14.032,54.3,54.3,0,0,1-7.626-28.9,54.6,54.6,0,0,1,7.626-28.98,29.819,29.819,0,0,1,15.253-12.812,7.627,7.627,0,0,1,0-2.288C202.173-3.538,218.875.58,233.746.58l14.49.915a84.652,84.652,0,0,1,30.505,10.372l16.549,9.3h13.422l45.148,8.694c14.719,2.9,16.854,1.678,13.422,19.752a57.116,57.116,0,0,1-1.83,6.864c-4.423,13.193-7.626,8.313-21.659,5.491L301.62,53.354c1.6,17.007-3.813,38.132-11.363,62.154,24.175,20.515,35.157,49.724,18.532,88.313L268.522,327.9c67.569,47.893,108.141,91.516,110.505,162.364h85.643c55.062-41.716,45.758-116-14.49-163.432V297.4h0V252.858c0-14.185,7.626-20.591,21.735-20.133h97.235V23.459A18.913,18.913,0,0,1,587.988,4.622ZM185.777,514.974,128.2,488.053a51.249,51.249,0,1,0,57.579,27.15Zm8.389-490.066c.686,19.295,1.907,44.08,2.822,61.01a25.929,25.929,0,0,1-4.652-5.491,49.876,49.876,0,0,1-6.787-26.387,49.571,49.571,0,0,1,6.787-26.311c.61-.915,1.22-1.83,1.83-2.593Zm554.89,12.126a17.312,17.312,0,0,1,12.2,5.11A17.693,17.693,0,0,1,763.927,63.5a100.057,100.057,0,0,1,26.006,7.626c38.132,19.066,59.028,48.885,59.028,93.193a5.11,5.11,0,0,1-4.728,5.11H654.108a5.033,5.033,0,0,1-5.033-5.11A98.227,98.227,0,0,1,708.1,71.2a96.4,96.4,0,0,1,26.006-7.626,17.617,17.617,0,0,1,2.669-21.354,17.388,17.388,0,0,1,12.278-5.11ZM628.1,198.94V184.679a1.449,1.449,0,0,1,1.449-1.525H867.8a1.449,1.449,0,0,1,1.449,1.525V198.94a1.449,1.449,0,0,1-1.449,1.449H629.551A1.449,1.449,0,0,1,628.1,198.94ZM773.688,538.387a50.334,50.334,0,0,1-100.591,0Z" transform="translate(0 -0.005)" fill="black" fill-rule="evenodd"/>
</svg>
