<svg id="Group_26" data-name="Group 26" xmlns="http://www.w3.org/2000/svg"  viewBox="0 0 1012.09 1015.214">
  <g id="Group_6" data-name="Group 6" transform="translate(221.785 218.661)">
    <path id="Path_13" data-name="Path 13" d="M149.121,111.336H14.8L67.9,14.5Z" transform="translate(-14.8 -14.5)" fill="black"/>
  </g>
  <g id="Group_7" data-name="Group 7" transform="translate(228.033 346.734)">
    <path id="Path_14" data-name="Path 14" d="M165.139,22.7l90.588,310.812L15.2,22.7Z" transform="translate(-15.2 -22.7)" fill="black"/>
  </g>
  <g id="Group_8" data-name="Group 8" transform="translate(306.126 206.166)">
    <path id="Path_15" data-name="Path 15" d="M102.979,115.221,20.2,13.7H187.32Z" transform="translate(-20.2 -13.7)" fill="black"/>
  </g>
  <g id="Group_9" data-name="Group 9" transform="translate(423.266 215.538)">
    <path id="Path_16" data-name="Path 16" d="M27.7,114.26,112.041,14.3l82.779,99.96Z" transform="translate(-27.7 -14.3)" fill="black"/>
  </g>
  <g id="Group_10" data-name="Group 10" transform="translate(410.771 346.734)">
    <path id="Path_17" data-name="Path 17" d="M217.448,22.7,122.174,352.254,26.9,22.7Z" transform="translate(-26.9 -22.7)" fill="black"/>
  </g>
  <g id="Group_11" data-name="Group 11" transform="translate(540.406 206.166)">
    <path id="Path_18" data-name="Path 18" d="M117.979,115.221,35.2,13.7H200.758Z" transform="translate(-35.2 -13.7)" fill="black"/>
  </g>
  <g id="Group_12" data-name="Group 12" transform="translate(543.53 346.734)">
    <path id="Path_19" data-name="Path 19" d="M125.988,22.7H275.928L35.4,333.512Z" transform="translate(-35.4 -22.7)" fill="black"/>
  </g>
  <g id="Group_13" data-name="Group 13" transform="translate(655.984 218.661)">
    <path id="Path_20" data-name="Path 20" d="M42.6,111.336,123.817,14.5l53.1,96.836Z" transform="translate(-42.6 -14.5)" fill="black"/>
  </g>
  <g id="Group_16" data-name="Group 16" transform="translate(629.433 307.688)">
    <g id="Group_14" data-name="Group 14" transform="translate(40.609)">
      <path id="Path_21" data-name="Path 21" d="M259.038,559.044V513.75c0-12.495,4.686-35.923,7.809-42.17L377.74,318.517c4.686-7.809,7.809-15.619,7.809-24.99V74.865c0-31.237-24.99-54.665-56.227-54.665a54.325,54.325,0,0,0-54.665,54.665V246.671l-24.99,29.676c-15.619-45.294-70.284-56.227-96.836-21.866L55.995,377.868A68.343,68.343,0,0,0,43.5,416.914V557.482" transform="translate(-43.5 -20.2)" fill="black"/>
    </g>
    <g id="Group_15" data-name="Group 15" transform="translate(0 570.081)">
      <path id="Path_22" data-name="Path 22" d="M67.452,56.7A26.325,26.325,0,0,0,40.9,83.252v95.274c0,9.371,6.247,15.619,15.619,15.619H323.6c9.371,0,15.619-6.247,15.619-15.619V83.252A26.325,26.325,0,0,0,312.665,56.7Zm49.98,95.274c-12.495,0-21.866-9.371-21.866-21.866s9.371-21.866,21.866-21.866,21.866,9.371,21.866,21.866S129.926,151.974,117.432,151.974Z" transform="translate(-40.9 -56.7)" fill="black"/>
    </g>
  </g>
  <g id="Group_18" data-name="Group 18" transform="translate(322.667 41.531)">
    <g id="Group_17" data-name="Group 17">
      <path id="Path_23" data-name="Path 23" d="M60.945,97.511,23.461,27.227C18.775,19.417,21.9,10.046,29.708,5.361S46.889,3.8,51.574,11.608L89.059,81.892c4.686,7.809,1.562,17.181-6.247,21.866S65.631,105.32,60.945,97.511Z" transform="translate(-21.259 -3.159)" fill="black"/>
    </g>
  </g>
  <g id="Group_20" data-name="Group 20" transform="translate(490.427)">
    <g id="Group_19" data-name="Group 19">
      <path id="Path_24" data-name="Path 24" d="M47.619,112.954C38.248,112.954,32,106.707,32,97.336V16.119C32,6.747,38.248.5,47.619.5S63.237,6.747,63.237,16.119V95.774C63.237,105.145,56.99,112.954,47.619,112.954Z" transform="translate(-32 -0.5)" fill="black"/>
    </g>
  </g>
  <g id="Group_22" data-name="Group 22" transform="translate(619.422 41.531)">
    <g id="Group_21" data-name="Group 21">
      <path id="Path_25" data-name="Path 25" d="M48.708,103.758C40.9,99.073,37.775,89.7,42.461,81.892L79.945,11.608C84.631,3.8,94,.675,101.812,5.361s10.933,14.057,6.247,21.866L70.574,97.511C65.889,105.32,56.517,108.444,48.708,103.758Z" transform="translate(-40.259 -3.159)" fill="black"/>
    </g>
  </g>
  <g id="Group_25" data-name="Group 25" transform="translate(0 307.688)">
    <g id="Group_23" data-name="Group 23">
      <path id="Path_26" data-name="Path 26" d="M127.111,559.044V513.75c0-12.495-4.686-35.923-7.809-42.17L8.409,318.517C3.724,310.707.6,302.9.6,293.527V74.865C.6,43.628,25.59,20.2,56.827,20.2c29.675,0,54.665,24.99,54.665,54.665V246.671l24.99,29.676c15.619-43.732,68.722-57.789,96.836-21.866l96.836,123.388a68.343,68.343,0,0,1,12.495,39.047V557.482" transform="translate(-0.6 -20.2)" fill="black"/>
    </g>
    <g id="Group_24" data-name="Group 24" transform="translate(82.779 570.081)">
      <path id="Path_27" data-name="Path 27" d="M32.452,56.7A26.325,26.325,0,0,0,5.9,83.252v95.274c0,9.371,6.247,15.619,15.619,15.619H288.6c9.371,0,15.619-6.247,15.619-15.619V83.252A26.325,26.325,0,0,0,277.665,56.7Zm174.929,73.408c0-12.495,9.371-21.866,21.866-21.866s21.866,9.371,21.866,21.866-9.371,21.866-21.866,21.866S207.381,142.6,207.381,130.108Z" transform="translate(-5.9 -56.7)" fill="black"/>
    </g>
  </g>
</svg>
