<svg xmlns="http://www.w3.org/2000/svg"  viewBox="0 0 899.828 899.828">
  <g id="Group_5" data-name="Group 5" transform="translate(-225.701 -356.24)">
    <g id="Group_4" data-name="Group 4" transform="translate(225.701 356.24)">
      <rect id="Rectangle_2" data-name="Rectangle 2"  fill="none"/>
      <g id="Group_3" data-name="Group 3" transform="translate(74.69 62.205)">
        <g id="Group_2" data-name="Group 2">
          <path id="Path_9" data-name="Path 9" d="M439.068,761.318,250.716,811.789l-15.459-57.679a36.818,36.818,0,0,1,26.032-45.091l151.594-40.627a153.476,153.476,0,0,0,26.185,92.925ZM694.43,592.96l151.594-40.618a36.81,36.81,0,0,1,45.091,26.032l15.45,57.679L718.213,686.524A153.491,153.491,0,0,0,694.43,592.96Zm17.952,125.607,201.8-54.071L983.2,922.045a36.818,36.818,0,0,1-26.032,45.09L372.436,1123.814a36.8,36.8,0,0,1-45.09-26.032L258.329,840.233l201.8-54.071a152.914,152.914,0,0,0,252.249-67.595ZM901.49,850.2a17.29,17.29,0,0,0-21.173-12.22l-109,29.2a17.29,17.29,0,0,0-12.22,21.173l10.87,40.582a17.285,17.285,0,0,0,21.173,12.229l109-29.208a17.29,17.29,0,0,0,12.22-21.173ZM488.649,1007.511a14.2,14.2,0,0,0-17.376-10.024l-83.153,22.28a14.175,14.175,0,0,0-10.024,17.367v.027a14.2,14.2,0,0,0,17.376,10.024l83.153-22.28a14.176,14.176,0,0,0,10.024-17.367Zm17.088-63.582a14.189,14.189,0,0,0-17.376-10.024l-114.989,30.81a14.172,14.172,0,0,0-10.024,17.366v.027a14.186,14.186,0,0,0,17.366,10.024l115-30.81a14.182,14.182,0,0,0,10.024-17.376Zm28.686-385.045a120.726,120.726,0,1,1-85.367,147.86A120.782,120.782,0,0,1,534.423,558.884Zm1.961,40.933-10.573,38.774a10.086,10.086,0,0,1-5.1,6.308l-35.732,18.4a10.064,10.064,0,0,0-.909,17.366l33.609,22.046a10.1,10.1,0,0,1,4.418,6.794l6.461,39.664a10.068,10.068,0,0,0,16.242,6.236l31.341-25.15a10.071,10.071,0,0,1,7.829-2.1l39.727,6.11a10.062,10.062,0,0,0,10.942-13.515L620.4,683.168a10.08,10.08,0,0,1,.423-8.1l18.087-35.894a10.065,10.065,0,0,0-9.466-14.586l-40.15,1.926a10.064,10.064,0,0,1-7.568-2.906l-28.542-28.29a10.069,10.069,0,0,0-16.8,4.5ZM295.725,504.246a13.5,13.5,0,0,1,26.995,0V529.5a13.5,13.5,0,0,1-26.995,0Zm205.935-127.6a13.5,13.5,0,1,1,26.995,0V401.9a13.5,13.5,0,0,1-26.995,0ZM746.782,401.9a13.5,13.5,0,1,1,26.995,0v25.258a13.5,13.5,0,1,1-26.995,0ZM295.725,580a13.5,13.5,0,0,1,26.995,0v25.249a13.5,13.5,0,0,1-26.995,0Zm205.935-127.6a13.5,13.5,0,1,1,26.995,0v25.249a13.5,13.5,0,1,1-26.995,0Zm245.122,25.249a13.5,13.5,0,0,1,26.995,0v25.258a13.5,13.5,0,1,1-26.995,0Zm-387.052,63.6a13.5,13.5,0,0,1,0,26.995H334.472a13.5,13.5,0,1,1,0-26.995Zm205.935-127.6a13.5,13.5,0,0,1,0,26.995H540.416a13.5,13.5,0,0,1,0-26.995Zm245.122,25.249a13.5,13.5,0,1,1,0,26.995H785.529a13.5,13.5,0,1,1,0-26.995ZM283.965,541.256a13.5,13.5,0,1,1,0,26.995H258.716a13.5,13.5,0,1,1,0-26.995Zm205.944-127.6a13.5,13.5,0,0,1,0,26.995H464.65a13.5,13.5,0,0,1,0-26.995Zm245.122,25.249a13.5,13.5,0,1,1,0,26.995H709.772a13.5,13.5,0,1,1,0-26.995Z" transform="translate(-234.002 -363.153)" fill="black" fill-rule="evenodd"/>
        </g>
      </g>
    </g>
  </g>
</svg>
