<svg xmlns="http://www.w3.org/2000/svg"  viewBox="0 0 512 505.348">
  <g id="menu-svgrepo-com_1_" data-name="menu-svgrepo-com (1)" transform="translate(0 -3.326)">
    <path id="Path_1" data-name="Path 1" d="M173.308,508.674H65.424A65.5,65.5,0,0,1,0,443.248V68.752A65.5,65.5,0,0,1,65.424,3.326h234.1A65.5,65.5,0,0,1,364.944,68.75V224.288a15.266,15.266,0,1,1-30.532,0V68.752A34.93,34.93,0,0,0,299.52,33.86H65.424A34.929,34.929,0,0,0,30.532,68.752v374.5a34.93,34.93,0,0,0,34.892,34.892H173.308a15.266,15.266,0,0,1,0,30.533Z" fill="black"/>
    <rect id="Rectangle_1" data-name="Rectangle 1" width="148.066" height="94.164" transform="translate(108.435 116.755)" fill="black"/>
    <g id="Group_1" data-name="Group 1">
      <path id="Path_2" data-name="Path 2" d="M256.507,226.181H108.438a15.267,15.267,0,0,1-15.266-15.266V116.749a15.267,15.267,0,0,1,15.266-15.266H256.507a15.267,15.267,0,0,1,15.266,15.266v94.166A15.267,15.267,0,0,1,256.507,226.181ZM123.7,195.649H241.241V132.015H123.7Z" fill="black"/>
      <path id="Path_3" data-name="Path 3" d="M212.24,317.17H152.707a15.266,15.266,0,1,1,0-30.532h59.535a15.266,15.266,0,1,1,0,30.532Z" fill="black"/>
      <path id="Path_4" data-name="Path 4" d="M212.24,401.741H152.707a15.266,15.266,0,1,1,0-30.532h59.535a15.266,15.266,0,1,1,0,30.532Z" fill="black"/>
    </g>
    <path id="Path_5" data-name="Path 5" d="M496.734,493.406H252.477V459.824A122.129,122.129,0,0,1,374.606,337.7h0A122.128,122.128,0,0,1,496.735,459.824v33.582Z" fill="black"/>
    <path id="Path_6" data-name="Path 6" d="M496.734,508.674H252.477a15.267,15.267,0,0,1-15.266-15.266V459.824c0-75.759,61.635-137.4,137.4-137.4S512,384.064,512,459.824v33.584A15.268,15.268,0,0,1,496.734,508.674ZM267.743,478.141H481.468V459.823a106.863,106.863,0,1,0-213.725,0Z" fill="black"/>
    <circle id="Ellipse_1" data-name="Ellipse 1" cx="25.444" cy="25.444" r="25.444" transform="translate(349.155 286.686)" fill="black"/>
    <path id="Path_7" data-name="Path 7" d="M374.605,352.837a40.71,40.71,0,1,1,40.71-40.71A40.757,40.757,0,0,1,374.605,352.837Zm0-50.886a10.178,10.178,0,1,0,10.178,10.178A10.19,10.19,0,0,0,374.605,301.951Z" fill="black"/>
  </g>
</svg>
