<svg xmlns="http://www.w3.org/2000/svg" viewBox="0 0 483.046 486.991">
  <path id="Path_8" data-name="Path 8" d="M426.751,57.6a20.055,20.055,0,1,0,5.87,14.174A20.055,20.055,0,0,0,426.751,57.6Zm-59.273,84.24a75.838,75.838,0,0,0,90.2,0,49.123,49.123,0,0,0-90.2,0ZM466.185,27.279a75.811,75.811,0,0,1,.178,107.043,60.29,60.29,0,0,0-45.282-32.6,31.113,31.113,0,1,0-17.009,0,60.29,60.29,0,0,0-45.282,32.6,75.816,75.816,0,1,1,107.4-107.044Zm-39.434,365.59a20.049,20.049,0,1,0,0-.011Zm-59.273,84.24a75.838,75.838,0,0,0,90.2,0,49.123,49.123,0,0,0-90.2,0Zm98.707-114.558a75.811,75.811,0,0,1,.178,107.043,60.507,60.507,0,0,0-18.827-21.986A59.9,59.9,0,0,0,421.082,437a31.1,31.1,0,1,0-17.009,0,59.873,59.873,0,0,0-26.455,10.609,60.506,60.506,0,0,0-18.827,21.987,75.816,75.816,0,1,1,107.4-107.044ZM95.434,392.869a20.017,20.017,0,1,0,5.87,14.169,20.017,20.017,0,0,0-5.87-14.169Zm-59.278,84.24a75.838,75.838,0,0,0,90.2,0,49.123,49.123,0,0,0-90.2,0Zm98.707-114.558a75.811,75.811,0,0,1,.179,107.043,60.506,60.506,0,0,0-18.827-21.986A59.873,59.873,0,0,0,89.759,437a31.1,31.1,0,1,0-17.009,0,59.9,59.9,0,0,0-26.455,10.609,60.505,60.505,0,0,0-18.827,21.986,75.816,75.816,0,1,1,107.4-107.044ZM95.434,58.8a20.017,20.017,0,1,0,5.875,14.174A20.017,20.017,0,0,0,95.434,58.8ZM36.156,143.027a75.838,75.838,0,0,0,90.2,0,49.123,49.123,0,0,0-90.2,0ZM134.863,28.48a75.811,75.811,0,0,1,.179,107.043,60.447,60.447,0,0,0-18.827-21.981,59.819,59.819,0,0,0-26.455-10.615,31.1,31.1,0,1,0-17.009,0,59.84,59.84,0,0,0-26.455,10.615,60.447,60.447,0,0,0-18.827,21.981,75.816,75.816,0,1,1,107.4-107.044Zm180.415,159.6H178.554a9.917,9.917,0,0,0-9.884,9.884V304.35a9.928,9.928,0,0,0,9.884,9.89h57.888a5.523,5.523,0,0,1,3.208,1.023l13.828,7.985h0l21.478,12.378V319.779a5.54,5.54,0,0,1,5.54-5.54h34.781a9.927,9.927,0,0,0,9.884-9.89V197.945a9.917,9.917,0,0,0-9.884-9.884ZM191.841,49.433a5.529,5.529,0,1,1-2.986-10.647,215.8,215.8,0,0,1,116.116,0,5.526,5.526,0,0,1-2.986,10.642,202.5,202.5,0,0,0-27.191-5.648,207.934,207.934,0,0,0-55.756,0,202.754,202.754,0,0,0-27.2,5.654ZM50.947,300.46A5.529,5.529,0,1,1,40.3,303.446a215.8,215.8,0,0,1,0-116.116,5.529,5.529,0,1,1,10.647,2.986A202.5,202.5,0,0,0,45.3,217.507a207.934,207.934,0,0,0,0,55.756,202.573,202.573,0,0,0,5.648,27.2ZM301.974,441.354A5.529,5.529,0,1,1,304.96,452a213.058,213.058,0,0,1-28.706,5.951,215.585,215.585,0,0,1-58.7,0A213.164,213.164,0,0,1,188.844,452a5.529,5.529,0,1,1,2.986-10.647,202.753,202.753,0,0,0,27.2,5.648,207.93,207.93,0,0,0,55.756,0,202.494,202.494,0,0,0,27.191-5.648Zm140.9-251.027a5.529,5.529,0,1,1,10.647-2.986,215.823,215.823,0,0,1,0,116.116,5.529,5.529,0,1,1-10.647-2.986,202.588,202.588,0,0,0,5.648-27.2,207.938,207.938,0,0,0,0-55.756,202.5,202.5,0,0,0-5.637-27.18Z" transform="translate(-5.349 -4.984)" fill="black" fill-rule="evenodd"/>
</svg>
