<svg xmlns="http://www.w3.org/2000/svg"  viewBox="0 0 1260.165 979.014">
  <path id="Path_1" data-name="Path 1" d="M-438,76.618-88.806-502l-109.1,421.638,170.085.57L-437.306,477.014-261.764,67.7-438,76.63ZM37.825,156.1a22.706,22.706,0,0,1-30.041-12.58c-4.913-12.01.557-25.829,12.236-30.886,24.215-10.5,44.987-29.322,59.664-53.461,14.439-23.783,22.888-52.666,22.888-83.91S94.1-84.924,79.633-108.713C64.95-132.872,44.146-151.7,19.875-162.156A23.87,23.87,0,0,1,7.639-193.061a22.729,22.729,0,0,1,30.041-12.58c33.171,14.32,61.335,39.655,80.987,71.974,18.9,31.062,29.948,68.588,29.948,108.938s-11.047,77.82-29.91,108.9c-19.615,32.276-47.753,57.579-80.887,71.974ZM231.01,316.974a22.606,22.606,0,0,1-32.026-5.727,24.067,24.067,0,0,1,5.576-32.933C249.3,246.039,286.4,201.258,312.1,148.273,336.975,97,351.12,38.039,351.12-24.735c0-63.087-14.213-122.212-39.154-173.49-25.823-53.086-63.143-97.923-108.112-130.18a24.009,24.009,0,0,1-5.658-32.845,22.531,22.531,0,0,1,14.723-9.694,22.531,22.531,0,0,1,17.2,3.873c51.2,36.726,93.592,87.621,122.857,147.7,28.164,57.892,44.192,124.221,44.192,194.587s-15.91,136.438-43.879,194.112c-29.078,59.977-71.28,110.778-122.269,147.616ZM119.143,246.339a22.689,22.689,0,0,1-31.224-9.513,24.07,24.07,0,0,1,9.257-32.1c37.752-21.048,69.515-53.73,91.6-93.88,21.549-39.179,34-85.631,34-135.575s-12.517-96.552-34.185-135.813c-22.243-40.368-54.131-73.107-91.933-94.049a23.993,23.993,0,0,1-9.388-31.988,22.683,22.683,0,0,1,31.143-9.626c45.444,25.147,83.609,64.264,110.127,112.336,25.529,46.314,40.293,100.827,40.293,159.113,0,58.074-14.677,112.462-40.105,158.707C202.258,182.069,164.268,221.186,119.143,246.339Zm-622.791-90.256c-33.133-14.357-61.272-39.692-80.887-71.974C-603.4,53.06-614.444,15.558-614.444-24.76s11.047-77.87,29.954-108.932c19.646-32.295,47.822-57.63,80.987-71.974a22.716,22.716,0,0,1,30.041,12.58A23.83,23.83,0,0,1-485.7-162.2c-24.271,10.477-45.062,29.3-59.751,53.443-14.47,23.783-22.938,52.723-22.938,83.978s8.449,60.139,22.888,83.91c14.677,24.14,35.443,42.966,59.664,53.461,11.679,5.057,17.149,18.895,12.236,30.886a22.723,22.723,0,0,1-30.041,12.58Zm-193.2,160.891c-50.989-36.807-93.191-87.621-122.269-147.616C-847.091,111.679-863,45.525-863-24.754s16.028-136.695,44.192-194.587c29.265-60.12,71.655-111,122.857-147.7a22.531,22.531,0,0,1,17.2-3.873,22.531,22.531,0,0,1,14.723,9.694,24.033,24.033,0,0,1-5.633,32.845c-44.968,32.238-82.289,77.075-108.112,130.18C-802.717-146.922-816.93-87.8-816.93-24.71c0,62.774,14.145,121.731,39.016,173.008,25.7,53,62.8,97.785,107.523,130.061a24.067,24.067,0,0,1,5.576,32.933,22.606,22.606,0,0,1-14.8,9.663,22.606,22.606,0,0,1-17.229-3.937Zm111.886-70.635c-45.125-25.154-83.115-64.276-109.583-112.386C-719.978,87.708-734.654,33.32-734.654-24.754c0-58.287,14.764-112.818,40.293-159.113,26.518-48.073,64.683-87.189,110.1-112.336a22.691,22.691,0,0,1,31.143,9.626A23.922,23.922,0,0,1-562.5-254.59c-37.783,20.941-69.665,53.68-91.908,94.017C-676.079-121.306-688.6-74.766-688.6-24.76s12.448,96.383,34,135.575c22.087,40.174,53.824,72.857,91.6,93.88a24.049,24.049,0,0,1,9.257,32.1,22.691,22.691,0,0,1-31.224,9.513Z" transform="translate(863 502)" fill="black" fill-rule="evenodd"/>
</svg>
