<svg xmlns="http://www.w3.org/2000/svg" viewBox="0 0 436.917 436.917">
  <path id="Path_10" data-name="Path 10" d="M90.99,397.85a157.962,157.962,0,0,0,103.66,73.81c19.25,4.08,17.72-12.13,5.75-15.31-33.45-8.93-66.53-32.26-87.22-69.51C96.03,356.03,87.41,315.69,94.24,266.2c.2-3.2,4.68-4.76,6.97-2.1,7.68,8.9,15.19,13.72,20.38,14.23,4.11.4,4.65-2.52,4.54-6.01-.4-9.72-8.39-27.47-29.31-54.06-5.05-6.41-9.98-6.63-16.5-2.07-28.8,20.1-40.37,35.8-42.46,45.75-1.05,4.96.34,8.99,6.04,8.84,5.41-.14,12.53-4.08,18.37-12.61,1.45-3.34,7.97-1.73,7.23,2.89-8.92,55.69.63,101.81,21.49,136.79Zm181.7-155.99c13.52-28.23,9.52-52.16-1.08-68.83a59.612,59.612,0,0,0-23.24-21.32c-42.15-20.66-30.9,35.26-19.53,55.13,7.43,12.98,21.88,27.47,35.29,42.38,1.79-18.06-.68-35.69-12.73-57.29-2.52-4.59,4.42-8.48,6.97-3.88,11.32,20.3,14.81,37.17,14.32,53.81ZM244.8,298.29c-13.46-12.02-32.06-20.15-48.1-26.22-4.9-1.87-2.1-9.33,2.81-7.48,15.73,5.98,33.25,13.69,47.03,24.75-9.41-31.32-29.28-46.52-48.93-51.36a59.15,59.15,0,0,0-31.58.62c-15.17,4.79-27.55,19.42-14.31,33.56,20.17,21.54,65.59,24.01,93.08,26.13Zm67.69-21.88c4.93-1.84,7.74,5.61,2.83,7.48-16.16,6.12-33.39,14.43-46.74,26.11,24.18-1.98,73.16-6.8,89.91-24.69,13.24-14.14,2.66-30.1-12.53-34.89a59.039,59.039,0,0,0-31.55-.62c-19.93,4.93-40.08,20.49-49.35,52.72,13.84-11.57,30.99-19.87,47.43-26.11ZM178.67,357.77H338.03a2.007,2.007,0,0,0,1.5-3.32c-15.17-18.51-57.97-25.03-81.01-25.09-4-22.05,2.72-42.32,8.14-58.65,2.55-7.63,4.79-14.46,5.7-20.35.77-5.19-7.12-6.38-7.91-1.19-.82,5.41-2.95,11.85-5.36,19.05-5.61,16.95-12.59,37.98-8.65,61.37-23.67,1.33-59.27,8.42-73.36,24.92a2.01,2.01,0,0,0,1.59,3.26ZM421,114.16A157.972,157.972,0,0,0,317.37,40.32c-19.25-4.05-17.72,12.16-5.78,15.34,33.45,8.93,66.56,32.26,87.25,69.48,17.15,30.84,25.74,71.18,18.94,120.67-.57,3.57-4.45,4.99-6.97,2.07-7.68-8.87-15.19-13.69-20.41-14.2-4.08-.43-4.65,2.52-4.51,5.98.4,9.75,8.39,27.5,29.31,54.06,5.02,6.41,9.95,6.66,16.5,2.1,28.8-20.13,40.37-35.8,42.43-45.75,1.05-4.99-.31-9.01-6.01-8.87-5.41.14-12.53,4.11-18.37,12.61-3.4,3.57-7.85.99-7.23-2.86,8.93-55.69-.65-101.81-21.52-136.79ZM397.84,421.01a157.905,157.905,0,0,0,73.84-103.66c4.05-19.22-12.16-17.72-15.34-5.75-8.93,33.45-32.26,66.56-69.48,87.22-30.84,17.15-71.15,25.77-120.67,18.94-3.29-.77-5.02-4.42-2.07-6.97,8.87-7.65,13.69-15.19,14.2-20.38.43-4.08-2.52-4.65-5.98-4.51-9.75.37-27.5,8.36-54.06,29.28-6.41,5.05-6.63,9.98-2.1,16.5,20.13,28.8,35.83,40.37,45.78,42.46,4.96,1.05,8.99-.34,8.84-6.04-.2-7.46-6.83-14.4-12.61-18.37a3.993,3.993,0,0,1,2.86-7.23c55.7,8.92,101.81-.63,136.79-21.49ZM114.15,91A157.928,157.928,0,0,0,40.34,194.63c-4.08,19.25,12.13,17.72,15.34,5.78,8.93-33.45,32.26-66.56,69.48-87.25,30.81-17.12,71.15-25.74,120.67-18.94,3.51.85,4.73,4.65,2.07,6.97-8.9,7.68-13.72,15.19-14.23,20.41-.4,4.08,2.52,4.65,6.01,4.51,9.72-.37,27.47-8.36,54.06-29.28,6.41-5.05,6.63-9.98,2.07-16.5-20.1-28.83-35.8-40.39-45.75-42.46-4.96-1.05-8.99.31-8.84,6.01.14,5.41,4.11,12.53,12.61,18.37,3.46,3.15,1.08,7.88-2.89,7.23-55.66-8.93-101.78.65-136.79,21.52Z" transform="translate(-37.538 -37.545)" fill="black"/>
</svg>
