<svg xmlns="http://www.w3.org/2000/svg"  viewBox="0 0 712.331 598.23">
  <path id="working-hours-icon" d="M296.469,559.6a16.753,16.753,0,0,1,0,33.448A296.512,296.512,0,1,1,548.925,140.894l3.536-17.391a16,16,0,1,1,31.361,5.8l-11.594,57.1a15.941,15.941,0,0,1-19.13,12L497.216,185.53a15.941,15.941,0,0,1,7.072-31.071l16,3.71A263.18,263.18,0,1,0,296.469,559.6ZM410.958,286.28a13.1,13.1,0,0,1,0,20.521l-28.4,21.912a12.869,12.869,0,0,1-19.71-15.188h-37.1a33.854,33.854,0,1,1-48.114-45.1l.58-60.114a12.811,12.811,0,0,1-15.246-19.767l22.55-27.941a12.811,12.811,0,0,1,9.565-4.753h0a12.753,12.753,0,0,1,10.608,5.275l21.333,28.985A12.869,12.869,0,0,1,312.005,209.7l-.406,56.752a33.854,33.854,0,0,1,14.029,13.217h37.1a12.869,12.869,0,0,1,19.825-15.3Zm66.9,161.85,29.564,77.621,14.9-42.317-7.3-8.058c-5.449-8-3.594-17.391,6.55-18.724a69.159,69.159,0,0,1,11.014,0,60.052,60.052,0,0,1,12.115.464c9.391,2.087,10.376,11.188,5.8,18.492l-7.3,7.942,14.9,42.317,26.724-77.621c19.3,17.391,71.244,20.869,92.751,32.695,29.448,16.521,28.637,42.9,34.781,72.4-58.723,58.549-300.8,61.157-362.075-.116,6.435-28.984,5.8-56.172,35.129-72.4,26.086-14.55,71.07-13.449,92.751-32.695Zm-5.449-52.172a13.217,13.217,0,0,1-7.246-1.739,16.811,16.811,0,0,1-6.9-8.174c-3.188-7.13-5.8-25.912,2.319-31.3l-1.507-.985v-2.087c0-3.768-.406-8.348-.464-13.159,0-17.391-.638-39.071-15.246-43.361l-6.261-1.855,4.116-4.927a235,235,0,0,1,36.521-36.115,93.736,93.736,0,0,1,42.317-20A51.824,51.824,0,0,1,560.982,243.5a80.348,80.348,0,0,1,11.072,10.782,46.9,46.9,0,0,1,32.926,18.782,63.3,63.3,0,0,1,10.666,21.043,69.158,69.158,0,0,1,2.9,23.883,56.52,56.52,0,0,1-17.1,38.723,12.521,12.521,0,0,1,5.333,1.333,12.753,12.753,0,0,1,4.7,15.826c-1.565,4.811-3.594,10.434-5.507,15.13-2.261,6.319-5.8,7.536-12.174,6.84-14.608,63.766-102.9,66.085-121.387,0ZM175.024,114.634a14.26,14.26,0,1,1,24.695-14.2l10.608,18.434a14.392,14.392,0,0,1-24.869,14.492ZM100.3,199.79a14.318,14.318,0,0,1,14.318-24.753l18.666,10.492a14.259,14.259,0,1,1-14.261,24.7l-18.491-10.61ZM78.216,310.8a14.26,14.26,0,1,1,0-28.521H99.548a14.26,14.26,0,0,1,0,28.521Zm36.347,107.185a14.26,14.26,0,0,1-14.2-24.695l18.434-10.666a14.317,14.317,0,1,1,14.492,24.695ZM393.22,100.373a14.273,14.273,0,1,1,24.695,14.318l-10.666,18.666a14.317,14.317,0,1,1-24.695-14.492Zm-193.5,392.393a14.283,14.283,0,1,1-24.753-14.26L185.459,459.9a14.273,14.273,0,1,1,24.695,14.318Zm82.49-414.479a14.26,14.26,0,0,1,28.463,0V99.62a14.26,14.26,0,1,1-28.463,0ZM310.73,514.736a14.26,14.26,0,0,1-28.521,0V493.462a14.26,14.26,0,0,1,28.521,0Z" transform="translate(-0.009 0.006)" fill="black"/>
</svg>
