<svg xmlns="http://www.w3.org/2000/svg" xmlns:xlink="http://www.w3.org/1999/xlink" version="1.1" x="0px" y="0px" viewBox="0 0 100 125" style="enable-background:new 0 0 100 100;" xml:space="preserve"><path d="M24.9,68.1c-0.4,0-0.8-0.2-0.9-0.6c-0.3-0.7-0.4-1.3-0.5-2c-3-11.3-8.8-21.7-17.1-30.1c-0.4-0.4-0.4-1,0-1.4  c0.4-0.4,1-0.4,1.4,0c4.4,4.5,8.2,9.6,11.3,15.2c2.1,3.8,3.8,7.7,5.1,11.8c0.8-1.8,2-3.5,3.3-4.9c0.8-0.8,1.7-1.6,2.6-2.4  c-2.9-2-5-5.5-5.9-9.6c-0.9-4.1,0.1-9.3,4.1-11.1c1.9-0.8,4-0.6,6,0.6c2.6,1.7,4.5,4.9,4.7,8c0.1,2.6-0.5,5.2-1.9,7.4  c-1,1.6-2.2,2.9-3.5,4.2c2.7,0.9,5.6,0.5,7.6-1.1c1.7-1.4,2.5-3.3,3-5.5c-0.4-0.6-0.6-1.3-0.7-2.1c-0.1-1.3,0.4-2.8,1.5-3.8  c0.2-1.6,0.4-3.1,0.8-4.6c0.1-0.5,0.7-0.8,1.2-0.7c0.5,0.1,0.9,0.6,0.7,1.2c-0.2,0.9-0.2,1.9-0.1,2.9c0.5-0.1,1,0,1.4,0.1  c1.4,0.4,2.5,1.8,2.7,3.5c0.1,1.6-0.5,2.9-1.8,3.6c-0.4,0.2-0.8,0.1-1.1-0.2c-0.9-0.9-1.6-1.9-2.1-3c-0.1,0.9-0.2,1.8-0.4,2.7  c0.7,0.8,1.8,1.3,2.9,1.4c1.8,0.1,3.7-1,4.9-2.7c0.2-0.3,0.6-0.5,1-0.4c0.4,0.1,0.7,0.4,0.8,0.7c0.3,1.3,1.2,2.4,2.5,3.2  c2.1,1.3,5.4,1.7,8.3,1c1.8-0.4,3.5-1.1,5.2-1.8c2.8-1.1,5.6-2.2,8.7-2.3c6.2-0.3,11.9,3.5,16.1,6.3c0.5,0.3,0.6,0.9,0.3,1.4  c-0.3,0.5-0.9,0.6-1.4,0.3c-5.1-3.4-9.8-6.2-14.9-6c-2.7,0.1-5.3,1.1-8.1,2.2c-1.8,0.7-3.6,1.4-5.5,1.9c-3.4,0.8-7.2,0.4-9.8-1.2  c-1.2-0.7-2.1-1.7-2.7-2.8c-1.6,1.5-3.5,2.3-5.4,2.2c-1.2,0-2.4-0.5-3.4-1.2c-0.6,2-1.6,3.9-3.3,5.3c-2.7,2.3-7,2.7-10.5,1.1  c-0.1,0.1-0.1,0.1-0.2,0.2c-0.9,0.8-1.9,1.7-2.8,2.5c-2,2-3.7,4.9-3.5,7.6c0.1,0.6,0.3,1.2,0.4,1.7c0.1,0.5-0.2,1-0.7,1.2  C25.1,68.1,25,68.1,24.9,68.1z M30.7,34.6c-0.5,0-1,0.1-1.6,0.3c-2.9,1.2-3.7,5.4-3,8.8c0.8,3.8,2.8,6.9,5.5,8.6  c1.5-1.3,2.8-2.6,3.8-4.3c1.1-1.9,1.7-4.1,1.6-6.3c-0.1-2.5-1.6-5.1-3.7-6.4C32.6,35,31.7,34.6,30.7,34.6z M48,41.5  c0.3,1,0.9,2,1.5,2.9c0.2-0.4,0.2-0.9,0.2-1.1c-0.1-0.7-0.5-1.6-1.2-1.8C48.3,41.5,48.1,41.5,48,41.5z"/><text x="0" y="115" fill="#000000" font-size="5px" font-weight="bold" font-family="'Helvetica Neue', Helvetica, Arial-Unicode, Arial, Sans-serif">Created by Wuppdidu</text><text x="0" y="120" fill="#000000" font-size="5px" font-weight="bold" font-family="'Helvetica Neue', Helvetica, Arial-Unicode, Arial, Sans-serif">from the Noun Project</text></svg>