<svg xmlns="http://www.w3.org/2000/svg" xmlns:xlink="http://www.w3.org/1999/xlink" version="1.1" x="0px" y="0px" viewBox="0 0 100 125" enable-background="new 0 0 100 100" xml:space="preserve"><g><g><path d="M55.1,70.2c-8.8,0-16-2.3-19.1-6.1c-2.5,1.8-5.1,3.1-7.2,3.2c-2.2,0.1-4-1-5.1-3c-2.1-3.9-1.5-11.5,4.5-19.8    c1-1.3,9.5-12.6,14.6-10.9c2.1,0.7,3.2,3.3,3.2,8.3h-1c0-4-0.9-6.9-2.5-7.4c-3.1-1-9.2,4.8-13.5,10.6c-5.8,7.9-6.4,15-4.4,18.7    c0.9,1.7,2.4,2.6,4.2,2.5c1.9-0.1,4.3-1.4,6.6-3.1c-0.4-0.6-0.6-1.1-0.8-1.8c-1.2-4,1.7-8.4,8.1-11.9c7.3-4,14.9-6.4,20.5-6.7    c0.5-0.8,0.9-1.5,1.4-2.2c5.7-9.2,6-9.5,6.6-9.1c0.6,0.3,0.8,0.4-3.3,9.7c-0.3,0.6-0.5,1.2-0.8,1.8c1.9,0.3,3.3,0.9,4.2,2    c1.4,1.7,2,5.1-3.5,11.9c-6.4,7.9-8,9-9,8.4c-1-0.6-1.3-2.8,6.9-21.4c-0.6,0-1.2,0-1.9,0c-9.1,14.6-14.2,21.8-16.5,20.9    c-1.3-0.5-2.1-1.2-2.4-2c-0.4-1.1,0.1-2.3,0.7-3.5c0.4-0.9,0.9-1.9,0.8-2.7c0-0.1,0-0.1,0-0.1c0,0,0,0,0,0c-0.6,0-3,2-5,3.5    c-1.4,1.1-2.9,2.4-4.5,3.5c3.2,3.8,11.5,6.6,23.5,5.4C82.7,66.7,94,46.8,94.1,46.6l0.9,0.5c-0.1,0.2-11.7,20.6-34.5,22.8    C58.6,70.1,56.8,70.2,55.1,70.2z M66.7,43.7C59.4,60.2,58.9,64,59.3,64c0,0,0,0,0,0c0.5,0,2.2-1.2,7.7-8c4-4.9,5.1-8.6,3.5-10.6    C69.8,44.5,68.4,44,66.7,43.7z M46.4,55.5c0.1,0,0.3,0,0.4,0.1c0.2,0.1,0.5,0.3,0.6,0.9c0.1,1.1-0.4,2.2-0.9,3.2    c-0.5,1-0.9,1.9-0.6,2.7c0.2,0.5,0.8,1,1.9,1.4c1.9,0.7,9.8-11.6,14.9-19.9c-5.4,0.5-12.5,2.8-19.4,6.6c-6,3.3-8.8,7.2-7.7,10.7    c0.2,0.5,0.4,1,0.7,1.5c1.6-1.1,3.1-2.4,4.5-3.5C43.7,56.8,45.3,55.5,46.4,55.5z M64.7,42.9c0.5,0,1,0,1.4,0.1    c0.3-0.7,0.6-1.3,0.9-2c1.4-3.2,2.3-5.3,2.9-6.6c-1.1,1.7-2.8,4.4-4.4,7c-0.3,0.6-0.7,1.1-1,1.6C64.5,42.9,64.6,42.9,64.7,42.9z"/></g><g><path d="M11.7,69.4c-2.1,0-4.1-1-5.7-2.8c-1-1.1-1.2-2.4-0.7-3.8c1.3-3.8,8.4-8.4,18-12.4c1.5-6.3,1.8-11.1,0.3-20l1-0.2    c1.5,8.8,1.2,13.7-0.1,19.7c8.3-3.4,18.2-6.3,27.9-7.9l0.2,1c-9.9,1.6-20.1,4.6-28.3,8c-0.5,2.1-1.2,4.4-1.9,7.1    c-1.7,6.2-5,10.2-8.9,11.1C12.8,69.4,12.2,69.4,11.7,69.4z M22.9,51.5c-9,3.8-15.5,8.1-16.7,11.6c-0.4,1.1-0.2,2,0.5,2.8    c1.8,2,4,2.8,6.3,2.3c3.5-0.8,6.6-4.7,8.1-10.3C21.9,55.6,22.5,53.5,22.9,51.5z"/></g></g><text x="0" y="115" fill="#000000" font-size="5px" font-weight="bold" font-family="'Helvetica Neue', Helvetica, Arial-Unicode, Arial, Sans-serif">Created by Yaroslav Samoilov</text><text x="0" y="120" fill="#000000" font-size="5px" font-weight="bold" font-family="'Helvetica Neue', Helvetica, Arial-Unicode, Arial, Sans-serif">from the Noun Project</text></svg>