<svg xmlns="http://www.w3.org/2000/svg" xmlns:xlink="http://www.w3.org/1999/xlink" viewBox="0 0 66 57.5" version="1.1" x="0px" y="0px"><title>signature, name, person, distinctive, identification, authorization</title><desc>Created with Sketch.</desc><g stroke="none" stroke-width="1" fill="none" fill-rule="evenodd"><g transform="translate(-177.000000, -789.000000)" fill="#000000" fill-rule="nonzero"><path d="M190,833.554635 C190,834.106919 189.552285,834.554635 189,834.554635 C188.447715,834.554635 188,834.106919 188,833.554635 C188,828.159111 188.988743,821.377155 190.635459,814.782003 C186.549461,816.571512 182.268972,817.892975 178.155963,818.542398 C177.610436,818.628533 177.098373,818.256124 177.012237,817.710597 C176.926101,817.165071 177.298511,816.653007 177.844037,816.566872 C182.276368,815.86703 186.929211,814.344882 191.292762,812.28604 C192.137254,809.239842 193.116114,806.277888 194.195648,803.56044 C198.462638,792.819397 203.583232,787.408272 208.5547,790.722584 C213.573687,794.068576 211.305869,800.285526 204.152039,806.43782 C200.981248,809.1647 197.124013,811.658418 192.982846,813.692129 C191.13231,820.616573 190,827.899693 190,833.554635 Z M202.847961,804.921449 C209.144919,799.506065 210.901439,794.690778 207.4453,792.386685 C204.13076,790.176991 199.879877,794.669059 196.054352,804.298829 C195.209156,806.426392 194.42667,808.7102 193.724139,811.067509 C197.094943,809.276577 200.221814,807.179936 202.847961,804.921449 Z M204.668965,818.297929 C204.258455,818.667388 203.626165,818.634109 203.256706,818.223599 C202.887247,817.813089 202.920525,817.180799 203.331035,816.81134 L212.095184,808.923606 C212.916204,808.184688 214.180784,808.251245 214.919702,809.072265 C215.138351,809.315208 215.294127,809.608036 215.373399,809.925123 L216.627754,814.942547 L222.638079,810.977748 C223.541573,810.381745 224.755265,810.612652 225.376779,811.49879 L227.436616,814.435649 L241.786548,811.300364 C242.326104,811.182477 242.859067,811.524308 242.976953,812.063865 C243.09484,812.603421 242.753009,813.136384 242.213452,813.254271 L227.863521,816.389556 C227.075971,816.561626 226.262104,816.244064 225.79921,815.584083 L223.739373,812.647224 L217.729049,816.612023 C217.540415,816.736457 217.332058,816.828024 217.112826,816.882832 C216.041236,817.150729 214.955367,816.499208 214.687469,815.427618 L213.433114,810.410195 L204.668965,818.297929 Z"/></g></g><text x="0" y="61" fill="#000000" font-size="5px" font-weight="bold" font-family="'Helvetica Neue', Helvetica, Arial-Unicode, Arial, Sans-serif">Created by Andrejs Kirma</text><text x="0" y="66" fill="#000000" font-size="5px" font-weight="bold" font-family="'Helvetica Neue', Helvetica, Arial-Unicode, Arial, Sans-serif">from the Noun Project</text></svg>