<svg xmlns="http://www.w3.org/2000/svg" width="37.819" height="37.819" viewBox="0 0 39.819 37.819">
  <path id="Path_132" data-name="Path 132" d="M18.91,3.152A15.758,15.758,0,1,1,3.152,18.91,15.776,15.776,0,0,1,18.91,3.152ZM18.91,0a18.91,18.91,0,1,0,18.91,18.91A18.911,18.911,0,0,0,18.91,0ZM15.758,12.606a1.576,1.576,0,1,1-1.576-1.588A1.581,1.581,0,0,1,15.758,12.606Zm0,3.152H12.606v9.455h3.152Zm4.727,0H17.334v9.455h3.152V20.7c0-2.714,3.155-2.964,3.155,0v4.508h3.148V19.92c0-5.175-4.929-4.986-6.3-2.439V15.758Z" fill="black"/>
</svg>
