<svg xmlns="http://www.w3.org/2000/svg" width="37.819" height="37.819" viewBox="0 0 39.819 37.819">
  <path id="Path_131" data-name="Path 131" d="M18.91,3.152A15.758,15.758,0,1,1,3.152,18.91,15.776,15.776,0,0,1,18.91,3.152ZM18.91,0a18.91,18.91,0,1,0,18.91,18.91A18.911,18.911,0,0,0,18.91,0Zm0,11.16c2.524,0,2.824.009,3.821.055,2.564.117,3.758,1.332,3.876,3.875.044,1,.054,1.3.054,3.82s-.009,2.824-.054,3.82c-.118,2.542-1.311,3.76-3.876,3.876-1,.044-1.3.055-3.821.055s-2.824-.009-3.82-.055c-2.569-.118-3.758-1.338-3.877-3.876-.044-1-.055-1.3-.055-3.82s.011-2.824.055-3.82c.117-2.545,1.311-3.76,3.877-3.876C16.086,11.168,16.385,11.16,18.91,11.16Zm0-1.705c-2.569,0-2.888.011-3.9.058-3.435.158-5.342,2.063-5.5,5.5-.046,1.01-.057,1.332-.057,3.9s.011,2.89.057,3.9c.158,3.434,2.064,5.342,5.5,5.5,1.01.046,1.33.057,3.9.057s2.89-.011,3.9-.057c3.429-.158,5.344-2.063,5.5-5.5.046-1.009.057-1.33.057-3.9s-.011-2.888-.057-3.9c-.154-3.431-2.063-5.342-5.5-5.5-1.01-.047-1.332-.058-3.9-.058Zm0,4.6a4.855,4.855,0,1,0,4.855,4.855A4.855,4.855,0,0,0,18.91,14.055Zm0,8.007a3.152,3.152,0,1,1,3.153-3.152A3.151,3.151,0,0,1,18.91,22.061Zm5.046-9.332a1.135,1.135,0,1,0,1.136,1.135A1.135,1.135,0,0,0,23.956,12.729Z" fill="black"/>
</svg>
