<svg id="x-social-media-round-icon" xmlns="http://www.w3.org/2000/svg" width="37.819" height="37.82" viewBox="0 0 39.819 37.82">
  <path id="Path_133" data-name="Path 133" d="M13.91-5A18.91,18.91,0,1,1-5,13.91,18.931,18.931,0,0,1,13.91-5Zm0,34.71a15.8,15.8,0,1,0-15.8-15.8A15.818,15.818,0,0,0,13.91,29.71Z" transform="translate(5 5)" fill="black"/>
  <path id="Path_134" data-name="Path 134" d="M160.715,157.549h2.654l-5.8,6.628,6.822,9.019h-5.342l-4.184-5.47-4.787,5.47h-2.656l6.2-7.089-6.544-8.558h5.477l3.782,5Zm-.932,14.058h1.471l-9.494-12.553h-1.578Z" transform="translate(-136.828 -146.463)" fill="black"/>
  <path id="Path_134_-_Outline" data-name="Path 134 - Outline" d="M141.011,154.549h6.558l2.628,3.474,3.039-3.474h4.429l-5.415,6.19,6.062,8.014h-6.436l-2.947-3.853-3.372,3.853h-4.43l5.734-6.554Z" transform="translate(-130.757 -142.741)" fill="black"/>
</svg>
