<svg xmlns="http://www.w3.org/2000/svg"  viewBox="0 0 586 586">
  <g id="Group_4" data-name="Group 4" transform="translate(3134 -414)">
    <g id="blog-writing-svgrepo-com" transform="translate(-3132.385 414)">
      <path id="Path_1" data-name="Path 1" fill="white" d="M480.008,241.438c-.662,13.413-10.838,29.973-27.236,45.889V497.063a18.785,18.785,0,0,1-5.741,13.556,19.575,19.575,0,0,1-13.806,5.615H91.422a19.6,19.6,0,0,1-13.788-5.615,18.769,18.769,0,0,1-5.723-13.556V161.893a18.8,18.8,0,0,1,5.723-13.556,19.6,19.6,0,0,1,13.788-5.615H272.955A457.465,457.465,0,0,1,324.137,85.6c.089-.108.161-.215.251-.322H91.422A78.8,78.8,0,0,0,36.2,107.708a75.772,75.772,0,0,0-22.891,54.187V497.064A75.708,75.708,0,0,0,36.2,551.25a78.883,78.883,0,0,0,55.224,22.424h341.8a78.9,78.9,0,0,0,55.259-22.426,75.835,75.835,0,0,0,22.872-54.187V220.551a2.434,2.434,0,0,0-.375-.358A178.389,178.389,0,0,1,480.008,241.438Z" transform="translate(0 12.326)"/>
      <path id="Path_2" data-name="Path 2" fill="white" d="M551.32,0S533.364,26.826,416.086,66.508c-119.586,40.471-193.195,205.1-193.195,205.1C205.17,305.34,135.12,445.473,135.12,445.473c-19.3,36.2,16.059,57.585,36.8,20.208,39.754-71.748,65.417-137.308,125.863-139.168,88.183-2.718,148.485-79.723,129.511-76.147-24.966,10.873-80.01.823-47.587-4.184,77.828-6.241,125.791-64.738,110.161-68.707-27.594,10.622-53.328.537-58.371-2.5C568.863,158.267,551.32,0,551.32,0Z" transform="translate(16.8 0)"/>
    </g>
    <rect id="Rectangle_2" data-name="Rectangle 2"  transform="translate(-3134 414)" fill="none"/>
  </g>
</svg>
