<svg xmlns="http://www.w3.org/2000/svg"  viewBox="0 0 644.394 644.394">
  <g id="Group_8" data-name="Group 8" transform="translate(1835 -2098)">
    <g id="phone-contact-svgrepo-com" transform="translate(-1835 2098)">
      <path id="Path_8" data-name="Path 8" fill="white" d="M555.462,325.21H522.634c0-107.136-87.135-194.251-194.212-194.251L328.4,98.17C453.627,98.111,555.462,199.985,555.462,325.21ZM328.4,154.8l-.02,32.789c75.923,0,137.6,61.736,137.56,137.6l32.828-.02C498.771,231.237,422.395,154.8,328.4,154.8ZM321.841,0C144.358,0,0,144.358,0,321.86,0,499.323,144.358,643.681,321.841,643.681a19.863,19.863,0,0,0,0-39.725c-155.59,0-282.135-126.584-282.135-282.1,0-155.59,126.545-282.155,282.135-282.155S603.956,166.29,603.956,321.86c0,65.007-34.6,129.422-84.12,156.733a121.617,121.617,0,0,1-58.307,15,93.268,93.268,0,0,0,31.35-30.129c1.576-2.384,3.665-4.493,4.69-7.074,6.463-15.547,7.035-33.183,10.936-49.617,4.788-20.966-91.786-61.933-100.18-35.745-3.035,9.695-7.685,40.356-13.774,48.435-5.419,7.212-18.779,3.783-27.134-3.31-22.01-18.759-46.582-46.326-68.14-68.12l.039-.02c-.552-.571-1.222-1.2-1.813-1.813-.611-.571-1.222-1.222-1.833-1.813v.039c-21.794-21.6-49.381-46.11-68.12-68.159-7.094-8.355-10.522-21.715-3.31-27.134,8.079-6.128,38.74-10.7,48.435-13.774C298.806,227,257.9,130.368,236.893,135.176c-16.395,3.842-34.03,4.473-49.578,10.9-2.64,1.123-4.69,3.153-7.074,4.729-55.154,34.957-62.268,119.845-8.434,183.1,20.513,24.2,41.912,47.607,63.942,70.465l-.118.079c.611.611,1.241,1.182,1.872,1.773.591.611,1.163,1.222,1.734,1.872l.118-.118c22.858,22.03,49.952,54.484,93.973,83.844,92.672,61.893,163.787,44.612,205.68,21.636,72.317-39.824,104.673-124.89,104.673-191.512C643.681,144.358,499.3,0,321.841,0Z"/>
    </g>
    <rect id="Rectangle_5" data-name="Rectangle 5"  transform="translate(-1834.606 2098.394)" fill="none"/>
  </g>
</svg>
