<svg xmlns="http://www.w3.org/2000/svg"  viewBox="0 0 528 528">
  <g id="Group_1" data-name="Group 1" transform="translate(-3079 -467)">
    <path id="cross-mark-svgrepo-com" d="M105.367,18.328c23.14,15.444,46.1,31.27,68.55,47.572C128.862,45,79.407,29.982,24.547,21.654c46.7,26.72,91.6,55.58,135.705,85.524a518.719,518.719,0,0,0-121.6-41.37c58.218,34.322,109.368,72.465,154.71,114.206C136.02,227.227,86.295,284.717,45.79,354.18c27.11-24.29,54.91-47.545,82.868-70.68C81.942,339.36,45.05,405.01,20.2,482.135q30.54-36.93,61.9-70.817c44.7-67.485,89.567-147.11,148.856-170.418-29.61,30.708-63.36,75.164-98.25,118.145A1496.659,1496.659,0,0,1,259.126,247.533c61.6,70.49,110.757,149.38,152.145,235.873a780.535,780.535,0,0,0-30.03-127.666l46.444,65.53s-26.037-72.69-43.66-101.987a1758.71,1758.71,0,0,1,112.328,175.2c-18.674-89.454-50.512-169.772-98.893-238.224Q449.819,308.3,498.39,365.309C465.048,288.827,423.58,221.82,372.214,167q60.336-38.83,123.863-71.783a757.16,757.16,0,0,0-92.006,21.934c21.836-16.173,44.41-32.124,67.024-47.523a952.892,952.892,0,0,0-109.067,41.433c42.668-27.673,86.32-53.668,131-78.6h0c-67.47,18.055-130.83,42.19-189,73.548-56.294-41.79-122.01-71.787-198.663-87.68Z" transform="translate(3083.8 474.673)" fill="#fff"/>
    <rect id="Rectangle_1" data-name="Rectangle 1"  transform="translate(3079 467)" fill="none"/>
  </g>
</svg>
