<svg xmlns="http://www.w3.org/2000/svg"  viewBox="0 0 123.581 117.863">
  <g id="Group_5" data-name="Group 5" transform="translate(-803.544 -617.24)">
    <path id="Path_18" data-name="Path 18" d="M64.64,2.22,80.35,39.01l39.85,3.58a3.2,3.2,0,0,1,1.83,5.59L91.89,74.5l8.92,39.02a3.208,3.208,0,0,1-4.88,3.4L61.69,96.44,27.34,116.98a3.2,3.2,0,0,1-4.39-1.1,3.171,3.171,0,0,1-.37-2.35h0L31.5,74.51,1.34,48.17a3.2,3.2,0,0,1,1.94-5.6L43.03,39,58.75,2.2a3.193,3.193,0,0,1,5.89.02ZM61.69,11.6,75.22,43.27h.01A3.191,3.191,0,0,0,77.9,45.2l34.31,3.08L86.37,70.83a3.193,3.193,0,0,0-1.15,3.24l7.68,33.58L63.39,90a3.2,3.2,0,0,0-1.7-.49V11.6Z" transform="translate(803.751 617.246)" fill="white" stroke="white" stroke-miterlimit="2.613" stroke-width="0.5" fill-rule="evenodd"/>
  </g>
</svg>
