<svg xmlns="http://www.w3.org/2000/svg"  viewBox="0 0 123.875 118.363">
  <g id="Group_4" data-name="Group 4" transform="translate(-672.749 -616.74)">
    <g id="Group_3" data-name="Group 3">
      <g id="star-half-icon" transform="translate(673 617)">
        <path id="Path_17" data-name="Path 17" d="M58.731,2.22,43.021,39.01,3.171,42.59a3.2,3.2,0,0,0-1.83,5.59L31.481,74.5l-8.92,39.02a3.208,3.208,0,0,0,4.88,3.4l34.24-20.48,34.35,20.54a3.2,3.2,0,0,0,4.39-1.1,3.171,3.171,0,0,0,.37-2.35h0l-8.92-39.02,30.16-26.34a3.2,3.2,0,0,0-1.94-5.6L80.341,39,64.621,2.2a3.193,3.193,0,0,0-5.89.02Zm2.95,9.38L48.151,43.27h-.01a3.191,3.191,0,0,1-2.67,1.93l-34.31,3.08L37,70.83a3.193,3.193,0,0,1,1.15,3.24l-7.68,33.58L59.981,90a3.2,3.2,0,0,1,1.7-.49V11.6Z" transform="translate(-0.249 -0.254)" fill="white" stroke="white" stroke-miterlimit="2.613" stroke-width="0.5" fill-rule="evenodd"/>
      </g>
      <path id="Path_17-2" data-name="Path 17" d="M64.64,2.22,80.35,39.01l39.85,3.58a3.2,3.2,0,0,1,1.83,5.59L91.89,74.5l8.92,39.02a3.208,3.208,0,0,1-4.88,3.4L61.69,96.44,27.34,116.98a3.2,3.2,0,0,1-4.39-1.1,3.171,3.171,0,0,1-.37-2.35h0L31.5,74.51,1.34,48.17a3.2,3.2,0,0,1,1.94-5.6L43.03,39,58.75,2.2a3.193,3.193,0,0,1,5.89.02ZM61.69,11.6,75.22,43.27h.01A3.191,3.191,0,0,0,77.9,45.2l34.31,3.08L86.37,70.83a3.193,3.193,0,0,0-1.15,3.24l7.68,33.58L63.39,90a3.2,3.2,0,0,0-1.7-.49V11.6Z" transform="translate(673.251 617.246)" fill="white" stroke="white" stroke-miterlimit="2.613" stroke-width="0.5" fill-rule="evenodd"/>
    </g>
  </g>
</svg>
