<svg xmlns="http://www.w3.org/2000/svg"  viewBox="0 0 496 496">
  <g id="Group_6" data-name="Group 6" transform="translate(1349 -1938)">
    <g id="home-icon-silhouette-svgrepo-com" transform="translate(-1349 1937.953)">
      <g id="Group_3" data-name="Group 3">
        <g id="Group_2" data-name="Group 2">
          <path id="Path_6" data-name="Path 6" fill="white" d="M487.083,225.514,412,150.434V63.7a28.4,28.4,0,0,0-56.79,0V93.645l-55.9-55.9c-27.639-27.624-75.694-27.575-103.27.05L8.312,225.514a28.4,28.4,0,0,0,40.172,40.158L236.194,77.943c6.115-6.083,16.893-6.083,22.976-.018L446.912,265.672a28.4,28.4,0,1,0,40.171-40.158Z"/>
          <path id="Path_7" data-name="Path 7" fill="white" d="M257.561,131.836a13.938,13.938,0,0,0-19.723,0L72.712,296.913a13.977,13.977,0,0,0-4.085,9.877v120.4a51.163,51.163,0,0,0,51.16,51.16h81.754V351.741h92.3v126.61H375.6a51.163,51.163,0,0,0,51.159-51.159V306.79a13.922,13.922,0,0,0-4.085-9.877Z"/>
        </g>
      </g>
    </g>
    <rect id="Rectangle_3" data-name="Rectangle 3"  transform="translate(-1349 1938)" fill="none"/>
  </g>
</svg>
