<svg xmlns="http://www.w3.org/2000/svg"  viewBox="0 0 518 518">
  <g id="Group_7" data-name="Group 7" transform="translate(1314.273 -2793.727)">
    <path id="clipboard-list-svgrepo-com" fill="white" d="M119.809,48.4A52.776,52.776,0,0,1,172.282,1.25H289.545A52.777,52.777,0,0,1,342.018,48.4c17.9.364,33.371,1.29,46.582,3.717,17.777,3.265,32.906,9.486,45.219,21.8,14.116,14.117,20.188,31.891,23.026,53,2.732,20.333,2.732,46.185,2.732,78.259V348.465c0,32.074,0,57.926-2.732,78.259-2.838,21.11-8.91,38.882-23.026,53s-31.891,20.188-53,23.026c-20.333,2.732-46.185,2.732-78.259,2.732H159.269c-32.074,0-57.926,0-78.259-2.732-21.11-2.838-38.884-8.91-53-23.026s-20.188-31.891-23.027-53C2.249,406.39,2.25,380.539,2.25,348.465V205.174c0-32.074,0-57.926,2.733-78.259,2.838-21.11,8.91-38.884,23.027-53C40.32,61.6,55.449,55.383,73.226,52.118,86.439,49.691,101.913,48.765,119.809,48.4Zm.055,35.189c-16.843.36-29.822,1.207-40.283,3.128C66.289,89.16,58.594,93.08,52.885,98.79c-6.491,6.491-10.723,15.6-13.036,32.813-2.382,17.715-2.419,41.194-2.419,74.858V347.177c0,33.664.037,57.142,2.419,74.859,2.314,17.21,6.546,26.321,13.036,32.813s15.6,10.723,32.813,13.037c17.715,2.38,41.194,2.418,74.858,2.418H301.272c33.664,0,57.142-.038,74.859-2.418,17.21-2.315,26.321-6.546,32.813-13.037s10.723-15.6,13.037-32.813c2.38-17.716,2.418-41.195,2.418-74.859V206.461c0-33.664-.038-57.143-2.418-74.858-2.315-17.209-6.546-26.322-13.037-32.813-5.711-5.71-13.4-9.63-26.7-12.072-10.462-1.921-23.441-2.769-40.285-3.128a52.775,52.775,0,0,1-52.417,46.65H172.282A52.777,52.777,0,0,1,119.864,83.589Zm52.418-47.16a17.59,17.59,0,0,0-17.59,17.59V77.471a17.59,17.59,0,0,0,17.59,17.59H289.545a17.59,17.59,0,0,0,17.59-17.59V54.019a17.59,17.59,0,0,0-17.59-17.59ZM96.061,218.187a17.59,17.59,0,0,1,17.59-17.59h11.726a17.59,17.59,0,0,1,0,35.179H113.65A17.59,17.59,0,0,1,96.061,218.187Zm82.084,0a17.59,17.59,0,0,1,17.589-17.59H348.177a17.59,17.59,0,1,1,0,35.179H195.735A17.59,17.59,0,0,1,178.145,218.187ZM96.061,300.272a17.59,17.59,0,0,1,17.59-17.59h11.726a17.59,17.59,0,0,1,0,35.179H113.65A17.59,17.59,0,0,1,96.061,300.272Zm82.084,0a17.59,17.59,0,0,1,17.589-17.59H348.177a17.59,17.59,0,1,1,0,35.179H195.735A17.59,17.59,0,0,1,178.145,300.272ZM96.061,382.356a17.59,17.59,0,0,1,17.59-17.59h11.726a17.59,17.59,0,0,1,0,35.179H113.65A17.59,17.59,0,0,1,96.061,382.356Zm82.084,0a17.59,17.59,0,0,1,17.589-17.59H348.177a17.59,17.59,0,1,1,0,35.179H195.735A17.59,17.59,0,0,1,178.145,382.356Z" transform="translate(-1285.883 2798.823)" fill-rule="evenodd"/>
    <rect id="Rectangle_4" data-name="Rectangle 4"  transform="translate(-1314.273 2793.727)" fill="none"/>
  </g>
</svg>
