<svg xmlns="http://www.w3.org/2000/svg"  viewBox="0 0 80 80">
  <g id="Group_1" data-name="Group 1" transform="translate(-1717 -624)">
    <g id="noun-logout-72030" transform="translate(1696.782 518.371)">
      <path id="Path_4" data-name="Path 4" d="M925.3,377.337l1.231-1.243-1.248-1.226L911.92,361.742l-2.441,2.486,13.364,13.126-.017-2.469-13.213,13.339,2.475,2.452Z" transform="translate(-831.288 -231.108)"/>
      <path id="Path_5" data-name="Path 5" d="M532.876,569.359h1.742v-3.484H496.2v3.484Z" transform="translate(-443.21 -422.795)"/>
      <path id="Path_6" data-name="Path 6" d="M69.137,120.647a34.489,34.489,0,0,0-3.588-2.033,26.779,26.779,0,0,0-11.739-2.985,31.272,31.272,0,0,0-19.389,7.042c-6.485,5.354-10.2,13.1-10.2,22.735A29.223,29.223,0,0,0,53.81,175.058a27.217,27.217,0,0,0,11.907-2.9,30.813,30.813,0,0,0,3.5-1.984c.627-.414,1.076-.744,1.328-.947l-2.183-2.715c-.034.027-.117.091-.249.188-.23.169-.5.359-.816.566a27.356,27.356,0,0,1-3.1,1.758,23.8,23.8,0,0,1-10.385,2.547A25.743,25.743,0,0,1,27.7,145.405c0-8.584,3.248-15.35,8.937-20.048a27.794,27.794,0,0,1,17.171-6.244,23.415,23.415,0,0,1,10.2,2.628,31.071,31.071,0,0,1,3.224,1.826c.332.216.623.415.869.591.142.1.235.171.274.2l2.136-2.753c-.263-.2-.731-.539-1.38-.961Z"/>
    </g>
    <rect id="Rectangle_2" data-name="Rectangle 2"  transform="translate(1717 624)" fill="none"/>
  </g>
</svg>
