<svg xmlns="http://www.w3.org/2000/svg"  viewBox="0 0 90 90">
  <g id="Group_2" data-name="Group 2" transform="translate(-786 -652)">
    <g id="Group_1" data-name="Group 1" transform="translate(-71 48)">
      <path id="align-right-svgrepo-com" d="M84.741,12.852a4.926,4.926,0,1,0,0-9.852H5.926a4.926,4.926,0,0,0,0,9.852Zm0,19.7a4.926,4.926,0,1,0,0-9.852H45.333a4.926,4.926,0,1,0,0,9.852Zm4.926,14.778a4.926,4.926,0,0,1-4.926,4.926H5.926a4.926,4.926,0,0,1,0-9.852H84.741A4.926,4.926,0,0,1,89.667,47.333Zm-4.926,24.63a4.926,4.926,0,0,0,0-9.852H45.333a4.926,4.926,0,0,0,0,9.852Z" transform="translate(857 612)" fill="#fff" fill-rule="evenodd"/>
      <rect id="Rectangle_1" data-name="Rectangle 1"  transform="translate(857 604)" fill="none"/>
    </g>
  </g>
</svg>
