<svg xmlns="http://www.w3.org/2000/svg" data-name="Layer 1" viewBox="0 0 100 125" x="0px" y="0px"><defs><style>
      .cls-1 {
        stroke-width: 0px;
      }
    </style></defs><path class="cls-1" d="m22,54h32.34l-14.17,14.17c-1.56,1.56-1.56,4.09,0,5.66.78.78,1.8,1.17,2.83,1.17s2.05-.39,2.83-1.17l14.17-14.17c2.58-2.58,4-6.01,4-9.66s-1.42-7.08-4-9.66l-14.17-14.17c-1.56-1.56-4.1-1.56-5.66,0-1.56,1.56-1.56,4.1,0,5.66l14.17,14.17s0,0,0,0H22c-2.21,0-4,1.79-4,4s1.79,4,4,4Z"/><path class="cls-1" d="m82,22c0-2.21-1.79-4-4-4s-4,1.79-4,4v56c0,2.21,1.79,4,4,4s4-1.79,4-4V22Z"/></svg>