<svg xmlns="http://www.w3.org/2000/svg" xmlns:xlink="http://www.w3.org/1999/xlink" version="1.1" x="0px" y="0px" viewBox="0 0 64 80" enable-background="new 0 0 64 64" xml:space="preserve"><path d="M32,6.39c-17.383,0-31,5.926-31,13.49v0.001V46.92v0.005c0,4.224,4.277,8.1,11.735,10.633  c0.105,0.035,0.214,0.053,0.322,0.053c0.206,0,0.41-0.063,0.583-0.188c0.262-0.188,0.417-0.49,0.417-0.812V37.966  c1.473-0.465,3.021-0.871,4.627-1.211v5.011c0,0.357,0.19,0.688,0.5,0.866l12.316,7.11c0.155,0.089,0.327,0.134,0.5,0.134  s0.345-0.045,0.5-0.134l12.316-7.11c0.31-0.179,0.5-0.509,0.5-0.866v-5.011c1.606,0.34,3.154,0.746,4.627,1.211V56.61  c0,0.322,0.155,0.625,0.417,0.812c0.172,0.124,0.376,0.188,0.583,0.188c0.108,0,0.217-0.018,0.322-0.053  C58.723,55.024,63,51.148,63,46.925V46.92V19.881V19.88C63,12.315,49.383,6.39,32,6.39z M12.057,55.187C6.357,53,3,49.962,3,46.925  V46.92V24.738c1.85,2.147,4.935,4.054,9.057,5.538V55.187z M32,33.5l-10.316-5.956L32,21.588l10.316,5.956L32,33.5z M20.684,29.276  L31,35.232v11.912l-10.316-5.956V29.276z M33,47.144V35.232l10.316-5.956v11.912L33,47.144z M61,46.925  c0,3.037-3.357,6.075-9.057,8.262v-24.91c4.122-1.484,7.207-3.391,9.057-5.538V46.92V46.925z M61,19.881  c0,3.265-3.88,6.531-10.378,8.738c-0.405,0.138-0.678,0.519-0.678,0.947v6.304c-1.48-0.446-3.03-0.831-4.627-1.156v-7.17  c0-0.357-0.19-0.688-0.5-0.866L32.5,19.567c-0.31-0.178-0.69-0.178-1,0l-12.316,7.11c-0.31,0.179-0.5,0.509-0.5,0.866v7.17  c-1.598,0.325-3.147,0.71-4.627,1.156v-6.304c0-0.429-0.273-0.81-0.678-0.947C6.88,26.412,3,23.146,3,19.881V19.88  C3,13.651,16.28,8.39,32,8.39S61,13.651,61,19.881L61,19.881z"/></svg>