<svg xmlns="http://www.w3.org/2000/svg"  viewBox="0 0 34 34">
  <g id="Group_3" data-name="Group 3" transform="translate(-694 -556)">
    <g id="Group_2" data-name="Group 2" transform="translate(54 9)">
      <g id="Group_1" data-name="Group 1" transform="translate(607.073 513.917)">
        <path id="Path_1" data-name="Path 1" d="M43.314,42.083H64.96c.81,0,1.468-.9,1.468-2s-.657-2-1.468-2H43.314c-.81,0-1.467.9-1.467,2S42.5,42.083,43.314,42.083Z" fill="#fff"/>
        <path id="Path_2" data-name="Path 2" d="M64.427,48.083h-29.5a2,2,0,0,0,0,4h29.5a2,2,0,0,0,0-4Z" fill="#fff"/>
        <path id="Path_3" data-name="Path 3" d="M64.959,57.917H43.314c-.81,0-1.467.9-1.467,2s.657,2,1.467,2H64.96c.81,0,1.468-.9,1.468-2S65.77,57.917,64.959,57.917Z" fill="#fff"/>
      </g>
      <rect id="Rectangle_1" data-name="Rectangle 1"  transform="translate(640 547)" fill="none"/>
    </g>
  </g>
</svg>
