<svg xmlns="http://www.w3.org/2000/svg" viewBox="0 0 542.121 542.121">
  <g id="Group_9" data-name="Group 9" transform="translate(1372.061 -1163.939)">
    <g id="call-center-person-3-svgrepo-com" transform="translate(-1368.607 1163.939)">
      <path id="Path_3" data-name="Path 3" fill="white" d="M478.082,439.848l-3.85-22.278c-3.307-19.179-16.649-35.85-35.688-44.589l-81.049-37.239c-9.951-4.562-12.8-18.99-13.083-19.77-.878-1.3-2.363-2.08-4.645-2.08h-.205a4.8,4.8,0,0,0-4.057,3.362l-9.353,32.826L267.715,456.125,209.424,350.432l-9.509-33.178c-.506-1.792-2.1-3.115-4.77-3.412a4.963,4.963,0,0,0-4.392,2.762c-.028.148-2.842,14.559-12.82,19.137L96.87,372.981c-19.031,8.747-32.369,25.41-35.678,44.589l-3.85,22.278c-1.512,8.73.64,20.93,8.937,27.1.976.732,2.2,1.817,3.752,3.2,14.919,13.235,60.318,53.516,197.684,53.516,137.339,0,182.75-40.281,197.673-53.516,1.553-1.372,2.783-2.466,3.761-3.2C477.449,460.77,479.6,448.57,478.082,439.848Z" transform="translate(0 18.463)"/>
      <path id="Path_4" data-name="Path 4" fill="white" d="M300.6,129.609c19.641,36.861,46.54,87.361,58.28,94.693l2.228,1.389,8.166-63.76c2.238-28.008-6.766-54.519-25.35-74.652-20.315-22.007-50.183-34.626-81.946-34.626S200.347,65.273,180.032,87.28C161.446,107.4,152.439,133.923,154.682,162l7.429,63.119L164.6,222.4c5.126-5.582,14.362-11.41,26.054-18.792,27.04-17.066,67.683-42.714,99.6-93.313C293.21,115.724,296.73,122.333,300.6,129.609Z" transform="translate(5.733 3.098)"/>
      <path id="Path_5" data-name="Path 5" fill="white" d="M102.732,256.962A12.58,12.58,0,0,0,115,266.638a12.8,12.8,0,0,0,2.949-.354l21.257-5.106a12.552,12.552,0,0,0,8.811-7.81l.876.057-.4-1.595a12.488,12.488,0,0,0,.039-5.862l-11.082-45.863c-2.658-15.989-4.006-29.66-4.006-40.652,0-72.917,59.322-132.237,132.237-132.237s132.234,59.32,132.234,132.237c0,10.983-1.348,24.662-4.2,41.161l-10.888,45.354a11.579,11.579,0,0,0-.3,2.072l-.434.97c-.144.321-14.8,32.012-60.322,40.947a13.576,13.576,0,0,0-11.961-7.12H282.385a13.627,13.627,0,0,0-13.607,13.613V307.18a13.627,13.627,0,0,0,13.607,13.613h27.428a13.618,13.618,0,0,0,12.74-8.968c27.246-4.669,45.468-16.137,56-25a96.1,96.1,0,0,0,20.63-23.955l14.232,3.412a12.782,12.782,0,0,0,2.948.354,12.578,12.578,0,0,0,12.261-9.676l10.889-45.354a12.64,12.64,0,0,0-9.324-15.216l-7.861-1.883a256.88,256.88,0,0,0,2.812-35.054C425.135,71.537,353.6,0,265.679,0S106.222,71.537,106.222,159.457a256.673,256.673,0,0,0,2.811,35.045l-7.867,1.891a12.634,12.634,0,0,0-9.32,15.216Z" transform="translate(2.036)"/>
    </g>
    <path id="Path_9" data-name="Path 9" d="M0,0H542.121V542.121H0Z" transform="translate(-1372.061 1163.939)" fill="none"/>
  </g>
</svg>
