<svg xmlns="http://www.w3.org/2000/svg"  viewBox="0 0 62 62">
  <g id="Group_1" data-name="Group 1" transform="translate(-199 -557)">
    <path id="noun-token-4755662"  d="M32,6.39c-17.383,0-31,5.926-31,13.49H1V46.925c0,4.224,4.277,8.1,11.735,10.633a1.02,1.02,0,0,0,.322.053,1,1,0,0,0,1-1V37.966c1.473-.465,3.021-.871,4.627-1.211v5.011a1,1,0,0,0,.5.866L31.5,49.742a1,1,0,0,0,1,0l12.316-7.11a1,1,0,0,0,.5-.866V36.755c1.606.34,3.154.746,4.627,1.211V56.61a1,1,0,0,0,1,1,1.02,1.02,0,0,0,.322-.053C58.723,55.024,63,51.148,63,46.925V19.881h0C63,12.315,49.383,6.39,32,6.39Zm-19.943,48.8C6.357,53,3,49.962,3,46.925V24.738c1.85,2.147,4.935,4.054,9.057,5.538ZM32,33.5,21.684,27.544,32,21.588l10.316,5.956ZM20.684,29.276,31,35.232V47.144L20.684,41.188ZM33,47.144V35.232l10.316-5.956V41.188Zm28-.219c0,3.037-3.357,6.075-9.057,8.262V30.277c4.122-1.484,7.207-3.391,9.057-5.538V46.925Zm0-27.044c0,3.265-3.88,6.531-10.378,8.738a1,1,0,0,0-.678.947v6.3c-1.48-.446-3.03-.831-4.627-1.156v-7.17a1,1,0,0,0-.5-.866L32.5,19.567a1,1,0,0,0-1,0l-12.316,7.11a1,1,0,0,0-.5.866v7.17c-1.6.325-3.147.71-4.627,1.156v-6.3a1,1,0,0,0-.678-.947C6.88,26.412,3,23.146,3,19.881H3C3,13.651,16.28,8.39,32,8.39s29,5.261,29,11.491Z" transform="translate(198 555.61)"/>
    <rect id="Rectangle_1" data-name="Rectangle 1"  transform="translate(199 557)" fill="none"/>
  </g>
</svg>
