<svg xmlns="http://www.w3.org/2000/svg" viewBox="0 0 380.84 49.73"><defs><style>.cls-1{fill:none;stroke:#000;stroke-linecap:round;stroke-linejoin:round;stroke-width:1.46px;}</style></defs><g id="Layer_2" data-name="Layer 2"><g id="objects"><path class="cls-1" d="M195.48.73C187.58,5.35,184.73,14.06,185,23s6.9,17.7,15.86,19.75,19.32-3.51,21.55-12.23c1.1-4.28-.24-9.66-4.43-11.32-4.77-1.9-10.34,2.74-10.45,7.77s3.85,9.45,8.53,11.55,7.64,4.65,16.48,4.65H359.42"/><path class="cls-1" d="M21.41,43.21H148.28c8.84,0,11.8-2.55,16.48-4.65S173.4,32,173.29,27s-5.68-9.67-10.45-7.77c-4.19,1.66-5.53,7-4.43,11.32C160.64,39.28,171,44.84,180,42.79S195.52,32,195.81,23,193.26,5.35,185.36.73"/><polygon points="17.29 36.7 0 43.21 17.29 49.73 26.61 43.21 17.29 36.7"/><polygon points="363.55 36.7 380.84 43.21 363.55 49.73 354.23 43.21 363.55 36.7"/></g></g></svg>