<svg xmlns="http://www.w3.org/2000/svg" viewBox="0 0 380.84 15.77"><defs><style>.cls-1,.cls-2{fill:#fff;}.cls-1{stroke:#fff;stroke-linecap:round;stroke-linejoin:round;stroke-width:1.46px;}</style></defs><g id="Layer_2" data-name="Layer 2"><g id="objects"><line class="cls-1" x1="10.88" y1="7.89" x2="369.96" y2="7.89"/><path class="cls-2" d="M0,7.89C8.52,5.57,11.31,2,16.25,2c5.43,0,6.36,5.91,6.36,5.91Z"/><path class="cls-2" d="M0,7.89c8.52,2.32,11.31,5.9,16.25,5.9,5.43,0,6.36-5.9,6.36-5.9Z"/><path class="cls-2" d="M380.84,7.89C372.32,5.57,369.53,2,364.59,2c-5.43,0-6.36,5.91-6.36,5.91Z"/><path class="cls-2" d="M380.84,7.89c-8.52,2.32-11.31,5.9-16.25,5.9-5.43,0-6.36-5.9-6.36-5.9Z"/><polygon class="cls-2" points="181.76 7.89 174.66 2.97 167.55 7.89 174.66 12.81 181.76 7.89"/><polygon class="cls-2" points="213.29 7.89 206.18 2.97 199.07 7.89 206.18 12.81 213.29 7.89"/><polygon class="cls-2" points="201.81 7.89 190.42 0 179.03 7.89 190.42 15.78 201.81 7.89"/></g></g></svg>