<svg xmlns="http://www.w3.org/2000/svg" xmlns:xlink="http://www.w3.org/1999/xlink" viewBox="0 0 159.41 175.79"><defs><style>.cls-1{fill:url(#linear-gradient);}.cls-10,.cls-2,.cls-4,.cls-5,.cls-8,.cls-9{fill:#181a21;}.cls-3{fill:url(#linear-gradient-2);}.cls-4,.cls-6{font-size:48.51px;letter-spacing:-0.05em;}.cls-4,.cls-5{stroke:#181a21;stroke-linecap:round;stroke-linejoin:round;stroke-width:6px;}.cls-4,.cls-5,.cls-6,.cls-7,.cls-9{font-family:Impact;}.cls-5,.cls-7{font-size:50.92px;letter-spacing:-0.05em;}.cls-6{fill:#fff;}.cls-7{fill:#f4d63b;}.cls-8{font-size:37.63px;letter-spacing:-0.05em;}.cls-10,.cls-8{font-family:Oswald-Regular, Oswald Regular;}.cls-9{font-size:43.52px;letter-spacing:-0.05em;}.cls-10{font-size:13.82px;}</style><linearGradient id="linear-gradient" x1="167.19" y1="76.76" x2="154.08" y2="92.84" gradientTransform="matrix(0.96, -0.05, 0.05, 1.04, -8.46, -3.71)" gradientUnits="userSpaceOnUse"><stop offset="0" stop-color="#f6ba26"/><stop offset="1" stop-color="#dc7e22"/></linearGradient><linearGradient id="linear-gradient-2" x1="109.37" y1="172.65" x2="115.92" y2="107.17" gradientTransform="matrix(0.96, -0.03, 0.05, 1.04, -8.4, -6.3)" gradientUnits="userSpaceOnUse"><stop offset="0" stop-color="#ebb029"/><stop offset="1" stop-color="#f4d63b"/></linearGradient></defs><g id="Layer_2" data-name="Layer 2"><g id="TEXTS"><path class="cls-1" d="M158.16,100.29,159.34,84c.82-11.2-5.76-11.25-11.78-10L123,79.26l-2.11,28.95Z"/><path class="cls-2" d="M147.7,36.26l-.78,63.21a11.83,11.83,0,0,1-10,11.14L22.65,128.19a24.78,24.78,0,0,0-15.56,8.88L0,145.73l1-89.4A11.83,11.83,0,0,1,11,45.1l125.06-19A9.94,9.94,0,0,1,147.7,36.26Z"/><path class="cls-3" d="M154.62,148.91h0l4.73-65h0c-.8,11-7.61,14.08-13.62,15.36L61.49,112.13a5.31,5.31,0,0,0-4,5.32l-.17,52.62c0,3.56,3,6.29,6.23,5.61L141,164.27C147,163,152.63,156.66,154.62,148.91Z"/><text class="cls-4" transform="matrix(0.99, -0.15, 0, 1, 23.48, 62.08)">PRICE</text><text class="cls-5" transform="matrix(0.99, -0.15, 0, 1, 25.69, 106.32)">DROP</text><text class="cls-6" transform="matrix(0.99, -0.15, 0, 1, 23.52, 62.12)">PRICE</text><text class="cls-7" transform="matrix(0.99, -0.15, 0, 1, 25.72, 106.36)">DROP</text><text class="cls-8" transform="matrix(0.58, -0.09, 0, 0.58, 119.07, 136.57)">%</text><text class="cls-9" transform="matrix(1, -0.15, 0, 1, 73.96, 158.54)">50</text><text class="cls-10" transform="matrix(1, -0.15, 0, 1, 116.24, 152.11)">OFF</text></g></g></svg>