<svg xmlns="http://www.w3.org/2000/svg" xmlns:xlink="http://www.w3.org/1999/xlink" viewBox="0 0 148.74 191.9"><defs><style>.cls-1{fill:url(#linear-gradient);}.cls-10,.cls-2,.cls-4,.cls-5,.cls-8,.cls-9{fill:#181a21;}.cls-3{fill:url(#linear-gradient-2);}.cls-4,.cls-6{font-size:41.03px;letter-spacing:-0.05em;}.cls-4,.cls-5{stroke:#181a21;stroke-linecap:round;stroke-linejoin:round;stroke-width:6px;}.cls-4,.cls-5,.cls-6,.cls-7,.cls-9{font-family:Impact;}.cls-5,.cls-7{font-size:43.07px;letter-spacing:-0.05em;}.cls-6{fill:#fff;}.cls-7{fill:#f4d63b;}.cls-8{font-size:57.87px;letter-spacing:-0.05em;}.cls-10,.cls-8{font-family:Oswald-Regular, Oswald Regular;}.cls-9{font-size:66.93px;letter-spacing:-0.05em;}.cls-10{font-size:21.25px;}</style><linearGradient id="linear-gradient" x1="144.64" y1="41.22" x2="127.43" y2="62.31" gradientTransform="matrix(1, -0.02, 0, 1, 0, 9)" gradientUnits="userSpaceOnUse"><stop offset="0" stop-color="#f6ba26"/><stop offset="1" stop-color="#dc7e22"/></linearGradient><linearGradient id="linear-gradient-2" x1="68.58" y1="180.06" x2="77.61" y2="89.75" gradientUnits="userSpaceOnUse"><stop offset="0" stop-color="#ebb029"/><stop offset="1" stop-color="#f4d63b"/></linearGradient></defs><g id="Layer_2" data-name="Layer 2"><g id="OBJECTS"><path class="cls-1" d="M145.74,88.94l2.74-20.43c1.89-14.05-7.1-14.4-15.41-13.05L99.09,61,94.21,97.31Z"/><path class="cls-2" d="M118.23,128.52l-92.8-9.78a7.8,7.8,0,0,1-6.64-5.49L.34,52.83a7.81,7.81,0,0,1,6.26-10L136.17,22.6A7.8,7.8,0,0,1,145,31.86l-18.33,90.45A7.78,7.78,0,0,1,118.23,128.52Z"/><path class="cls-3" d="M137.55,150h0L148.5,68.4h0c-1.86,13.82-11.37,17.4-19.68,18.75L12.46,106a7,7,0,0,0-5.87,6.52l-3.87,66.2a7,7,0,0,0,8.12,7.33l107-17.38C126.18,167.36,134.3,159.63,137.55,150Z"/></g><g id="TEXTS"><text class="cls-4" transform="matrix(0.99, -0.15, 0, 1, 28.31, 53.04)">PRICE</text><text class="cls-5" transform="matrix(0.99, -0.15, 0, 1, 30.18, 90.46)">DROP</text><text class="cls-6" transform="matrix(0.99, -0.15, 0, 1, 28.34, 53.08)">PRICE</text><text class="cls-7" transform="matrix(0.99, -0.15, 0, 1, 30.21, 90.49)">DROP</text><text class="cls-8" transform="matrix(0.58, -0.09, 0, 0.58, 89.57, 135.97)">%</text><text class="cls-9" transform="matrix(1, -0.15, 0, 1, 20.19, 169.78)">50</text><text class="cls-10" transform="matrix(1, -0.15, 0, 1, 85.23, 159.88)">OFF</text></g></g></svg>