<svg xmlns="http://www.w3.org/2000/svg" xmlns:xlink="http://www.w3.org/1999/xlink" viewBox="0 0 189.57 165.34"><defs><style>.cls-1,.cls-10,.cls-11,.cls-4,.cls-5,.cls-8,.cls-9{fill:#181a21;}.cls-2{fill:url(#linear-gradient);}.cls-3{fill:url(#linear-gradient-2);}.cls-4,.cls-6{font-size:48.51px;letter-spacing:-0.05em;}.cls-4,.cls-5{stroke:#181a21;stroke-linecap:round;stroke-linejoin:round;stroke-width:6px;}.cls-4,.cls-5,.cls-6,.cls-7,.cls-9{font-family:Impact;}.cls-5,.cls-7{font-size:50.92px;letter-spacing:-0.05em;}.cls-6{fill:#fff;}.cls-7{fill:#f4d63b;}.cls-8{font-size:28.8px;letter-spacing:-0.05em;}.cls-10,.cls-11,.cls-8{font-family:Oswald-Regular, Oswald Regular;}.cls-9{font-size:33.31px;letter-spacing:-0.05em;}.cls-10{font-size:10.58px;}.cls-11{font-size:16.49px;letter-spacing:0.1em;}</style><linearGradient id="linear-gradient" x1="71.62" y1="173.47" x2="108.81" y2="118.76" gradientUnits="userSpaceOnUse"><stop offset="0" stop-color="#f6ba26"/><stop offset="1" stop-color="#dc7e22"/></linearGradient><linearGradient id="linear-gradient-2" x1="196.66" y1="65.37" x2="149.45" y2="124.54" gradientTransform="matrix(0.74, 0.68, -0.74, 0.68, 109.42, -61.76)" gradientUnits="userSpaceOnUse"><stop offset="0" stop-color="#f4d63b"/><stop offset="1" stop-color="#ebb029"/></linearGradient></defs><g id="Layer_2" data-name="Layer 2"><g id="TEXTS"><polygon class="cls-1" points="47.08 161.34 124 165.34 91.04 140.21 47.08 161.34"/><polygon class="cls-2" points="159.8 126.96 47.08 161.34 48.53 124.22 159.8 126.96"/><path class="cls-1" d="M159.8,127,8.59,150.86A7.43,7.43,0,0,1,0,143.52V69a7.43,7.43,0,0,1,6.27-7.34L151.21,38.75a7.44,7.44,0,0,1,8.59,7.34Z"/><ellipse class="cls-3" cx="156.63" cy="120.5" rx="34.45" ry="31.48" transform="translate(-38.82 149.67) rotate(-46.06)"/><text class="cls-4" transform="matrix(0.99, -0.15, 0, 1, 23.8, 78.32)">PRICE</text><text class="cls-5" transform="matrix(0.99, -0.15, 0, 1, 26.01, 122.55)">DROP</text><text class="cls-6" transform="matrix(0.99, -0.15, 0, 1, 23.84, 78.35)">PRICE</text><text class="cls-7" transform="matrix(0.99, -0.15, 0, 1, 26.04, 122.59)">DROP</text><text class="cls-8" transform="matrix(0.58, -0.09, 0, 0.58, 165.94, 120.86)">%</text><text class="cls-9" transform="matrix(1, -0.15, 0, 1, 132.03, 137.59)">40</text><text class="cls-10" transform="matrix(1, -0.15, 0, 1, 163.77, 132.76)">OFF</text><text class="cls-11" transform="matrix(1, -0.15, 0, 1, 12.27, 32.67)">LIMITED OFFER</text></g></g></svg>